PathFileType	4	(X/Y/Z)	T1_P1_Vision_Movement_4_0-662.trc
DataRate	CameraRate	NumFrames	NumMarkers	Units	OrigDataRate	OrigDataStartFrame	OrigNumFrames
60	60	7	27	m	60	496	662
Frame#	Time	RHip			RKnee			RAnkle			RBigToe			RSmallToe			RHeel			LHip			LKnee			LAnkle			LBigToe			LSmallToe			LHeel			Neck			Head			Nose			RShoulder			RElbow			RWrist			RThumb			RIndex			RPinky			LShoulder			LElbow			LWrist			LThumb			LIndex			LPinky		
		X1	Y1	Z1	X2	Y2	Z2	X3	Y3	Z3	X4	Y4	Z4	X5	Y5	Z5	X6	Y6	Z6	X7	Y7	Z7	X8	Y8	Z8	X9	Y9	Z9	X10	Y10	Z10	X11	Y11	Z11	X12	Y12	Z12	X13	Y13	Z13	X14	Y14	Z14	X15	Y15	Z15	X16	Y16	Z16	X17	Y17	Z17	X18	Y18	Z18	X19	Y19	Z19	X20	Y20	Z20	X21	Y21	Z21	X22	Y22	Z22	X23	Y23	Z23	X24	Y24	Z24	X25	Y25	Z25	X26	Y26	Z26	X27	Y27	Z27
497	8.283333333333333	-131.27188974296638	3951.900395114118	-655.0293273196422	241.87025269202135	4107.672119361477	-669.5813157687602	593.1276159947065	4258.336764512885	-681.4965475474526	683.2868559087875	4200.885310971537	-651.6068642951186	673.6122643593817	4159.461043808074	-701.4042902186571	645.1422099104078	4317.830248158036	-697.5971771014871	-148.16912088557035	4067.8665593418855	-504.52845912416234	209.08947635207068	4164.800137728804	-491.65687425757756	554.6284852431015	4335.647315960251	-515.2168180198182	637.1660622936939	4215.537728494718	-400.84455071871344	609.1866848766523	4277.707384775919	-378.61359402519895	606.6950928330716	4375.585798677741	-537.952085776881	-722.9437343235104	3850.591657128994	-570.1270450672711	-943.244076074348	3688.5169000708647	-459.4246655926363	-786.0847287678226	3752.492592383314	-466.25716135330646	-620.774262782894	3784.964323222859	-697.4825590584227	-501.5339631890666	3637.1396126981554	-786.7949190248868	-678.5697066979665	3522.613030410825	-661.2274659403474	-804.3639001770804	3599.6075182765867	-671.6795096026046	-805.4580831577165	3579.9654870979516	-655.9202563333765	-789.7241468833305	3561.461688538524	-675.4963674208694	-658.601978665632	3996.3161719722557	-466.8983906098309	-408.4628402542677	4079.217016347208	-405.27032531955166	-147.122128023638	4128.588556043254	-370.7874803999285	-28.592889007006097	4142.160734750749	-376.0953734697089	10.510272506317431	4143.364323594664	-353.77495563950635	-15.809285531433671	4157.691857977418	-335.852460160585
498	8.3	-131.30799851850222	3952.0821398132525	-655.1252497743478	234.78814916380128	4076.8914320429817	-662.1832983644957	592.9198238473392	4258.644024413349	-681.614201720141	683.0084800963006	4200.503429807214	-651.3776133928654	673.6387368705808	4160.025391075531	-701.990430737649	638.6072481833984	4313.20325456085	-695.1168789410477	-152.99836262451595	4067.59276954308	-504.952723408563	208.96123686751568	4164.403645949786	-491.56053699741256	553.900758935624	4336.426548819398	-509.7375028941695	631.9343300587278	4215.796046399027	-401.48856062484646	604.3692542807356	4245.234813681789	-372.46001269492064	606.3703451127388	4375.411937207687	-537.5913245708484	-722.9969327270818	3850.6626412210408	-570.2083633294952	-943.3034112663432	3688.1078231465144	-459.2042579502168	-786.0353230326007	3752.272040375891	-466.24628507111026	-620.7822310378523	3785.059255557163	-697.5527677751562	-497.33781069836687	3640.368227796845	-788.6166138161993	-678.4586404914864	3522.4807914595112	-661.0800349010394	-801.6942117274358	3585.198162266895	-659.0224361738317	-802.6163902378094	3564.918610731753	-642.7016309547247	-785.036300895466	3562.748909077556	-675.5571048551149	-658.6021910903034	3996.2086244734915	-466.86753921184163	-409.62519605202027	4099.98339835415	-419.6080002401091	-152.94113139421805	4125.791954601706	-371.02705926449323	-29.06892706220497	4141.36749348424	-375.5114791092997	10.353989391794302	4143.068403652579	-353.523115309765	-16.05932607286361	4157.581275717267	-335.72753921069346
499	8.316666666666666	-131.20016234619217	3952.6631315211175	-655.2696559392756	241.871051665748	4107.938127521933	-669.6231543686124	599.2412011624639	4263.241437083549	-684.0137491056703	683.5401878301705	4191.440462695768	-659.8800130620847	679.0674314578894	4183.518977900955	-718.7032153661286	638.9394585741579	4314.046614603595	-697.6344579889362	-152.99738017927007	4067.401659382111	-504.7820808504449	209.07160573549933	4164.853256398026	-491.66686044757785	554.8676571148352	4335.998835729612	-515.1011564968896	631.87507076315	4215.621824377557	-401.39603028844675	604.762663681147	4245.48540086402	-372.5586507603182	618.1639893138757	4413.292739343626	-543.8476448744807	-723.0496643145492	3850.6051798458175	-570.1615150329538	-943.2059502064071	3687.951845557003	-459.317299252563	-795.5288764563481	3749.552376637412	-466.52001437798293	-620.8321629293827	3785.132573089127	-697.6016758370885	-497.2768688926056	3640.1344870568983	-788.4156919863397	-678.041613325251	3521.280356137966	-666.0761576344473	-801.7288445774328	3585.0254946962023	-658.8718344955922	-802.7338984588916	3564.5948362263857	-642.2308876492979	-784.7510660345846	3537.4101401987664	-668.3972487836578	-663.8322830980136	3992.4694629869387	-465.6063348864242	-409.5259810373023	4099.895458164332	-419.52868748022894	-147.328827722496	4128.310362002635	-370.45411228746104	-28.934759478746045	4141.739398367344	-375.68528641653063	10.413592052043837	4143.195809149535	-353.6324881772321	-15.863158256027502	4157.254161600829	-335.5045195926442
500	8.333333333333334	-131.3419730749914	3951.9748162514325	-654.9399205478362	241.87453193039914	4108.005692198958	-669.563359770599	599.2598297149482	4262.595429081481	-683.8710855217724	689.217684920277	4204.744987592022	-651.4665468300545	680.0690020629431	4162.5413381616545	-701.1343343321527	645.2294275296712	4317.001289128781	-697.1522235753608	-153.64552251385206	4067.1187597360436	-499.27081168193723	208.86764451349507	4164.797360125728	-491.63698131356006	548.373202285882	4331.782942754549	-515.7009013246216	641.520305388377	4246.190223689347	-406.6430352407396	609.0413322280475	4277.998269697629	-378.5205072626532	606.3308251702174	4374.884513231387	-538.0006155015948	-723.0495124977158	3850.423888353505	-570.1172190466898	-943.186728626868	3687.992458472719	-459.22916657577275	-790.694432343609	3750.778839719889	-466.4598991542475	-620.8231816092557	3785.1108911363667	-697.459265358298	-492.79584352909404	3640.774903553569	-788.2532196904261	-677.9568558640799	3520.909706236403	-665.8612598645165	-801.4321905401738	3584.675251608279	-658.6827240375812	-802.4430036629675	3564.2931181269455	-642.0877957873117	-779.6799430747977	3537.9992547263087	-668.2208172258547	-658.6159047440925	3996.001366072982	-466.87244304104314	-409.58728003326434	4099.507204274879	-419.53029368205335	-153.16077226002187	4124.916423019036	-370.8214905827455	-29.060326827951112	4112.3395766199465	-370.45605931962547	4.384944094166782	4137.5298244062615	-351.53524306592413	-16.3272978321531	4156.232102472192	-335.6628050839218
501	8.35	-131.33302469862582	3951.969128403745	-655.0836133296176	234.64545539100618	4076.869204991385	-662.3122160135673	599.0971168546685	4262.699237807197	-683.8949159568563	688.9638780536045	4203.888207677056	-651.0140037004559	674.5294486990745	4139.019566473993	-684.0708717176531	645.0284988049885	4317.98829765885	-697.7786940891657	-153.51664214420487	4067.187903121107	-499.3527260089564	208.98111210387552	4165.057106509371	-491.86863490371286	548.4679018900351	4331.895256942742	-516.1340111342854	631.9339485258296	4216.278217748708	-401.58471764724266	609.1231674446273	4277.846019261364	-378.64979559533185	606.9718891990763	4375.238902701122	-538.2713187654635	-723.0306466852226	3850.583882787503	-570.1609231413414	-943.216391125934	3687.912255177806	-459.0860351480368	-790.8389055119194	3750.50276040075	-466.126374987937	-620.8739349868547	3785.291585476398	-697.573787034166	-497.12793828322634	3639.776713021072	-788.085679017861	-677.8833271461165	3520.8497961250964	-665.8451253895133	-804.5050174898073	3582.6891400660916	-657.8585858933101	-802.3489208125561	3564.345948958894	-642.3136941918173	-779.6813050511362	3537.808826732509	-668.1911238656855	-658.5264946443505	3996.193099697551	-466.88867418032726	-409.55963501614895	4099.801928476136	-419.65032973329244	-152.51000084961822	4127.274607785591	-370.4908601699971	-24.069717723759876	4115.178296704293	-369.60670187628835	4.522500596709122	4138.23374647864	-351.4433580810232	-15.072089867287369	4158.712848977463	-335.2822269543502
502	8.366666666666667	-136.74208485860862	3949.7907595141323	-655.4527742250929	230.53950953115123	4105.152155660865	-670.803051993135	599.0770345471253	4262.616787891146	-683.8483378359157	683.7247409504494	4171.51652973886	-643.1649570087756	673.0588774129079	4157.724270669799	-700.9266943521449	645.1181148712943	4317.564372055876	-697.4262576236358	-153.08021294366773	4067.3348003970514	-504.86916471151517	202.95821571973758	4162.019546055211	-492.4552307511886	548.3095718785858	4331.908322503107	-516.1596500478834	631.6920641266865	4216.083592622252	-401.4917155237217	608.7386310641991	4277.422035138961	-378.5605954427549	606.9655559736908	4375.338335322544	-538.3114846011749	-723.0415826065662	3850.5502062881205	-570.1999537588807	-943.228255841992	3687.7396032557913	-459.03836999645057	-790.8475532373411	3750.3536845082845	-466.03298674561637	-620.8562319223679	3785.162353493628	-697.5069052319452	-497.22296486779237	3639.749057599396	-788.0826382888848	-677.9171400643966	3520.889773789222	-665.9251065545399	-804.5480906904604	3582.8208401033035	-658.0004923682665	-802.3544797968419	3564.5676634316583	-642.6204554625696	-774.9052480777161	3514.660914630229	-661.4027647175166	-658.4962550781073	3996.245787692309	-466.9418574376083	-409.5645851488162	4099.889040707554	-419.6005390054181	-152.52504333586873	4127.549480631288	-370.7580326387134	-28.844600087448317	4113.58576778877	-370.7649769549475	4.487612184927263	4138.574593060119	-351.70518142049434	-20.924357466959744	4157.01419210588	-336.1659923283272
503	8.383333333333333	-131.30588928963905	3951.7715881913555	-654.9613082136412	234.58190224111846	4076.802367852805	-662.2405053444201	599.2122695668476	4262.7268293875695	-683.8695510404253	688.9486441977349	4203.658391255375	-650.9736046701591	674.4742298419917	4139.005293073627	-683.9270916491673	645.1911325420278	4318.161250864501	-697.8395435320241	-147.24282553911038	4069.7422163869505	-504.39166579660986	208.81087144466784	4164.724179069446	-491.82168350715875	554.4459390090931	4335.637295813518	-515.5802549351724	636.0132358084556	4247.018081860267	-407.41420261406637	608.9171068597531	4277.834092658113	-378.7099349291195	607.4250018391974	4376.07291472252	-538.5733339402311	-722.9845136196155	3850.3163129616933	-570.1118002447872	-943.1550496570735	3687.5670671642642	-458.9578955904338	-781.1017046675502	3726.676759139596	-460.5302422774402	-625.6647391137989	3783.760086937831	-697.397475520525	-497.0993362458541	3639.6841866325785	-788.048803883701	-677.9971691428173	3521.121506741977	-665.993964955706	-801.3909146296444	3584.52423271482	-658.644029715686	-802.3442749733507	3564.365547220985	-642.4521900175433	-779.6801917400118	3537.9322333327864	-668.2430529551377	-658.5800174897544	3996.1624929718805	-466.88623009810544	-409.55697466328115	4100.087327243703	-419.7076155616392	-148.19571244182373	4126.899565915374	-364.25087484813196	-28.976186032748302	4114.101962719286	-370.5633021300268	4.455533983327152	4138.814064653332	-351.59200447156564	-20.827543752889227	4156.33547167413	-335.9485178662502
